HIERARCHY
ROOT RootJoint
{
    OFFSET   0.000000   0.000000   0.000000
    CHANNELS 6 Xposition Yposition Zposition Xrotation Yrotation Zrotation
    JOINT pelvis_lowerback
    {
        OFFSET   0.000000   0.093605   0.000000
        CHANNELS 3 Xrotation Yrotation Zrotation
        JOINT lowerback_torso
        {
            OFFSET   0.000000   0.100000   0.000000
            CHANNELS 3 Xrotation Yrotation Zrotation
            JOINT torso_head
            {
                OFFSET   0.000000   0.282350   0.000000
                CHANNELS 3 Xrotation Yrotation Zrotation
                End Site
                {
                    OFFSET   0.000000   0.192650   0.000000
                }
            }
            JOINT rTorso_Clavicle
            {
                OFFSET  -0.001000   0.157500   0.000000
                CHANNELS 3 Xrotation Yrotation Zrotation
                JOINT rShoulder
                {
                    OFFSET  -0.117647   0.000000   0.000000
                    CHANNELS 3 Xrotation Yrotation Zrotation
                    JOINT rElbow
                    {
                        OFFSET  -0.245000   0.000000   0.000000
                        CHANNELS 3 Xrotation Yrotation Zrotation
                        JOINT rWrist
                        {
                            OFFSET  -0.240000   0.000000   0.000000
                            CHANNELS 3 Xrotation Yrotation Zrotation
                            End Site
                            {
                                OFFSET  -0.116353  -0.002500   0.000000
                            }
                        }
                    }
                }
            }
            JOINT lTorso_Clavicle
            {
                OFFSET   0.001000   0.157500   0.000000
                CHANNELS 3 Xrotation Yrotation Zrotation
                JOINT lShoulder
                {
                    OFFSET   0.117647   0.000000   0.000000
                    CHANNELS 3 Xrotation Yrotation Zrotation
                    JOINT lElbow
                    {
                        OFFSET   0.245000   0.000000   0.000000
                        CHANNELS 3 Xrotation Yrotation Zrotation
                        JOINT lWrist
                        {
                            OFFSET   0.240000   0.000000   0.000000
                            CHANNELS 3 Xrotation Yrotation Zrotation
                            End Site
                            {
                                OFFSET   0.116353  -0.002500   0.000000
                            }
                        }
                    }
                }
            }
        }
    }
    JOINT rHip
    {
        OFFSET  -0.100000  -0.051395   0.000000
        CHANNELS 3 Xrotation Yrotation Zrotation
        JOINT rKnee
        {
            OFFSET   0.000000  -0.410000   0.000000
            CHANNELS 3 Xrotation Yrotation Zrotation
            JOINT rAnkle
            {
                OFFSET   0.000000  -0.390000   0.000000
                CHANNELS 3 Xrotation Yrotation Zrotation
                JOINT rToeJoint
                {
                    OFFSET   0.000000  -0.050000   0.130000
                    CHANNELS 3 Xrotation Yrotation Zrotation
                    End Site
                    {
                        OFFSET  -0.010000   0.002000   0.060000
                    }
                }
            }
        }
    }
    JOINT lHip
    {
        OFFSET   0.100000  -0.051395   0.000000
        CHANNELS 3 Xrotation Yrotation Zrotation
        JOINT lKnee
        {
            OFFSET   0.000000  -0.410000   0.000000
            CHANNELS 3 Xrotation Yrotation Zrotation
            JOINT lAnkle
            {
                OFFSET   0.000000  -0.390000   0.000000
                CHANNELS 3 Xrotation Yrotation Zrotation
                JOINT lToeJoint
                {
                    OFFSET   0.000000  -0.050000   0.130000
                    CHANNELS 3 Xrotation Yrotation Zrotation
                    End Site
                    {
                        OFFSET   0.010000   0.002000   0.060000
                    }
                }
            }
        }
    }
}
MOTION
Frames: 14
Frame Time:   0.008333
 -1.432256   0.902332   5.479404 -161.007823  24.288240 176.216412  13.548573   0.421575  -1.888602   4.087853  -1.100628  -0.707419   0.915064  -4.757971   3.856531   0.928549  -0.170202   4.167468  15.427994  12.718789  49.412449   0.002847  54.202228  -0.023069   6.101821   6.303050  -9.730402   7.442880   0.842616  -7.100538  17.388009  -3.686134 -45.850750   0.002974 -33.012938   0.001565   5.572337  -2.326962   9.842969  -2.677950  -4.532879  -6.550941  73.713814   0.004461   0.001637   8.378004 -12.729349   4.768455 -10.403754  -0.000100  -0.029751   7.151760   2.799839  -3.393410  19.621301  -0.000442   0.006286  -9.599270   5.359506   7.009654  -0.976923  -0.001680   0.000343
 -1.425241   0.903362   5.465133 -160.803738  23.817249 175.968593  13.846824   0.094518  -1.668759   3.960133  -1.279886  -0.718772   0.964453  -4.749252   3.816299   1.138029  -0.301954   4.161562  15.842462  12.517935  49.592611  -0.002218  52.809028  -0.017782   6.197586   6.414641  -9.976324   6.998724   0.441116  -7.087588  16.222732  -4.278917 -45.588517  -0.001850 -33.726544  -0.000845   5.586016  -2.009405  10.063114  -4.108315  -4.663596  -6.399245  73.308049   0.003213   0.000678   7.164648 -13.437669   4.644499  -9.811279  -0.002838  -0.025661   8.459353   2.661577  -3.064886  19.659434  -0.000371   0.005156 -10.506245   5.028936   6.832017  -1.075786  -0.001401   0.000253
 -1.418275   0.904318   5.451312 -160.685691  23.346414 175.755066  14.160557  -0.207162  -1.472697   3.833353  -1.461528  -0.726333   1.012836  -4.730233   3.776984   1.372780  -0.428026   4.133448  16.268999  12.315427  49.758882  -0.006749  51.477995  -0.012016   6.268561   6.353355 -10.095046   6.495086   0.003500  -7.058485  15.055698  -4.908325 -45.349868  -0.005511 -34.465424  -0.002511   5.649781  -2.073632  10.364113  -5.610024  -4.787963  -6.223492  72.520717   0.001843  -0.000979   6.004357 -14.093175   4.511185  -9.294366  -0.005196  -0.021659   9.687388   2.537288  -2.710384  19.613601  -0.000296   0.003966 -11.266901   4.714518   6.670187  -1.311333  -0.001182   0.000121
 -1.411317   0.905067   5.437771 -160.595759  22.886553 175.570497  14.496065  -0.517755  -1.307278   3.731397  -1.666564  -0.745583   1.063480  -4.709319   3.738028   1.603130  -0.549328   4.094362  16.679027  12.122042  49.912307  -0.009519  50.230669  -0.007718   6.329518   6.240100 -10.155146   5.981799  -0.448794  -7.021466  13.930942  -5.532382 -45.126966  -0.007780 -35.179238  -0.003043   5.739712  -2.304931  10.703379  -7.141480  -4.896316  -6.061064  71.633220   0.000651  -0.002691   4.909362 -14.700942   4.373903  -8.828281  -0.006986  -0.018051  10.873963   2.425832  -2.354661  19.549173  -0.000222   0.002951 -11.951471   4.422390   6.521209  -1.646480  -0.000947  -0.000049
 -1.404325   0.905581   5.424381 -160.515233  22.442992 175.406533  14.840921  -0.839271  -1.167551   3.656717  -1.891584  -0.775593   1.116744  -4.689190   3.699119   1.826188  -0.670970   4.049222  17.070277  11.935781  50.053271  -0.010777  49.063719  -0.004948   6.385061   6.110768 -10.197534   5.480423  -0.896825  -6.980714  12.863525  -6.135035 -44.920778  -0.008913 -35.856457  -0.002801   5.841486  -2.600266  11.054788  -8.666525  -4.990404  -5.916526  70.737051  -0.000272  -0.004193   3.879838 -15.265181   4.235302  -8.406953  -0.008220  -0.014903  12.034204   2.325844  -1.999492  19.492449  -0.000157   0.002171 -12.588220   4.150803   6.381591  -2.069862  -0.000666  -0.000232
 -1.397272   0.905862   5.411060 -160.440481  22.020998 175.259021  15.182637  -1.165599  -1.048518   3.603886  -2.128773  -0.813868   1.170952  -4.670493   3.660611   2.043175  -0.795877   4.000535  17.444429  11.754644  50.182941  -0.010979  47.971434  -0.003362   6.435614   5.970822 -10.236502   5.001543  -1.329100  -6.939898  11.858908  -6.709013 -44.733157  -0.009208 -36.493789  -0.002153   5.947944  -2.916237  11.404418 -10.162553  -5.073100  -5.788556  69.865920  -0.000911  -0.005387   2.913325 -15.789270   4.097169  -8.025945  -0.008981  -0.012214  13.172591   2.236240  -1.644802  19.453549  -0.000107   0.001612 -13.185647   3.897872   6.250335  -2.581917  -0.000314  -0.000390
 -1.390144   0.905920   5.397759 -160.374238  21.618175 175.127497  15.511786  -1.492413  -0.945852   3.566231  -2.372455  -0.857941   1.224318  -4.653416   3.623032   2.255108  -0.925068   3.949853  17.802990  11.577733  50.302721  -0.010531  46.948560  -0.002564   6.481019   5.820515 -10.276315   4.549887  -1.739922  -6.901683  10.917781  -7.251572 -44.565069  -0.008926 -37.091181  -0.001361   6.055465  -3.233998  11.743947 -11.614777  -5.148394  -5.674726  69.033414  -0.001320  -0.006280   2.006703 -16.276184   3.960845  -7.681317  -0.009351  -0.009942  14.288659   2.161446  -1.290531  19.435819  -0.000077   0.001234 -13.745804   3.667344   6.126717  -3.183074   0.000118  -0.000571
 -1.382825   0.906323   5.384342 -160.417645  21.149102 175.008706  15.754494  -1.828664  -0.871077   3.456328  -2.500497  -0.827412   1.244926  -4.666135   3.505081   2.535894  -1.114568   3.979117  18.250874  11.359578  50.344008  -0.010964  45.916920  -0.000509   6.510160   5.656293 -10.344571   4.280455  -1.985806  -6.805563   9.901467  -7.835344 -44.374565  -0.013886 -38.733223  -0.004149   5.999657  -2.991119  11.730133 -12.585160  -5.539306  -5.563445  66.110966   0.000813  -0.009076   1.618477 -16.694542   4.008585  -7.296629  -0.012009  -0.008319  15.353615   2.210706  -0.835725  19.288967   0.000022   0.000291 -13.995233   3.413691   5.694599  -4.124423  -0.001397  -0.002105
 -1.375558   0.906462   5.371019 -160.555597  20.825671 174.977142  15.929978  -2.100597  -0.867610   3.287285  -2.594309  -0.821661   1.253658  -4.672789   3.377750   2.812777  -1.293335   3.988813  18.682494  11.152692  50.388967  -0.010597  44.951600   0.000640   6.535371   5.467663 -10.361335   3.994957  -2.217941  -6.651608   8.919667  -8.411747 -44.190438  -0.018711 -40.329368  -0.006568   6.006749  -3.112002  11.780054 -13.552687  -5.905536  -5.508657  62.780373   0.005624  -0.009483   1.239378 -17.077729   4.052721  -6.880841  -0.015199  -0.007140  16.323881   2.280236  -0.465706  19.113351   0.000176  -0.000441 -14.183344   3.168768   5.291976  -5.143023  -0.002388  -0.002605
 -1.368319   0.906242   5.357728 -160.721846  20.584516 174.992448  16.081710  -2.359611  -0.895346   3.101075  -2.688147  -0.834785   1.257070  -4.677775   3.252050   3.066691  -1.455866   3.979248  19.082814  10.959554  50.424308  -0.009567  44.053769   0.000857   6.561364   5.292799 -10.377186   3.706610  -2.450616  -6.471340   7.986154  -8.962076 -44.003037  -0.022375 -41.832680  -0.007600   6.037385  -3.344756  11.896257 -14.519211  -6.249719  -5.484073  59.480059   0.010991  -0.008306   0.878213 -17.432914   4.093258  -6.493650  -0.017521  -0.006165  17.256677   2.379745  -0.155469  18.948884   0.000310  -0.000919 -14.375354   2.966090   4.906024  -6.177090  -0.003029  -0.003050
 -1.361074   0.905680   5.344409 -160.894102  20.391069 175.035390  16.217358  -2.617683  -0.935574   2.914518  -2.790317  -0.856636   1.259264  -4.682722   3.131635   3.299721  -1.607450   3.956731  19.454400  10.776643  50.449139  -0.008283  43.217114   0.000501   6.587257   5.131248 -10.412743   3.423257  -2.681049  -6.281820   7.104031  -9.483752 -43.818651  -0.024733 -43.241058  -0.007579   6.076786  -3.606099  12.054061 -15.471527  -6.574401  -5.471852  56.339473   0.015753  -0.006475   0.538349 -17.763561   4.130746  -6.142069  -0.018842  -0.005311  18.172821   2.493456   0.115996  18.808188   0.000406  -0.001183 -14.577953   2.791720   4.538565  -7.229442  -0.003356  -0.003442
 -1.353802   0.904806   5.331029 -161.067361  20.225781 175.098245  16.336848  -2.875910  -0.978691   2.732319  -2.901097  -0.881217   1.261019  -4.687932   3.017929   3.516639  -1.752393   3.926634  19.801787  10.601807  50.466434  -0.007031  42.435975  -0.000100   6.611600   4.976297 -10.467629   3.149989  -2.905714  -6.093169   6.273836  -9.976766 -43.643387  -0.025923 -44.558352  -0.006944   6.119983  -3.872369  12.233348 -16.401047  -6.880643  -5.463730  53.391790   0.019481  -0.004560   0.219921 -18.071892   4.165466  -5.825628  -0.019301  -0.004546  19.077554   2.613519   0.360829  18.695173   0.000460  -0.001287 -14.782593   2.638203   4.190216  -8.315967  -0.003417  -0.003812
 -1.346490   0.903647   5.317570 -161.242440  20.076658 175.177915  16.439443  -3.132463  -1.019558   2.555344  -3.018380  -0.905094   1.262105  -4.693381   2.911398   3.720826  -1.892819   3.892899  20.128242  10.434302  50.479278  -0.005961  41.705923  -0.000726   6.633675   4.823969 -10.535675   2.889947  -3.122075  -5.911061   5.494804 -10.441746 -43.480928  -0.026171 -45.789647  -0.006019   6.165006  -4.136359  12.420709 -17.302978  -7.168989  -5.456313  50.639054   0.022118  -0.002863  -0.077935 -18.359629   4.197624  -5.541763  -0.019096  -0.003861  19.970752   2.735354   0.586727  18.610042   0.000475  -0.001277 -14.980231   2.500600   3.861725  -9.449046  -0.003238  -0.004177
 -1.338963   0.902781   5.303944 -161.434696  19.919119 175.227290  16.453050  -3.405731  -1.038853   2.437313  -3.125889  -0.902562   1.193737  -4.806050   2.745174   3.931336  -2.028929   3.946045  20.496676  10.167996  50.385531  -0.004836  41.155288  -0.001331   6.593558   4.676001 -10.488491   2.748018  -3.182858  -5.751922   4.748993 -10.915761 -43.220754  -0.031174 -47.803944  -0.006202   6.052644  -3.945607  12.316415 -17.860221  -7.674164  -5.399375  46.954231   0.029822   0.003365  -0.066309 -18.587313   4.407523  -5.113154  -0.022173  -0.003771  20.753708   2.960386   0.899496  18.671535   0.000299  -0.000785 -14.833268   2.359597   3.190558 -11.172843  -0.007349  -0.006974
